<?xml version="1.0" encoding="UTF-8"?>
<svg xmlns="http://www.w3.org/2000/svg" width="69.635" height="88.899" viewBox="0 0 69.635 88.899">
  <g id="Group_67" data-name="Group 67" transform="translate(-201.076 -563.647)">
    <g id="Group_65" data-name="Group 65">
      <path id="Path_705" data-name="Path 705" d="M244.789,583.312c1.221-6.45,11.471-14.939,11.471-14.939-7.9-6.031-11.223,1.105-22.781-2.44-11.162-3.423-15.757,2.855-15.757,2.855a50.727,50.727,0,0,1,10.951,13.96c-5.9,4.1-18.864,16.494-25.659,42.164-6.53,24.67,36.589,34.191,58.424,19.178C282.921,629.318,254.419,588.827,244.789,583.312Z" fill="none" stroke="#194689" stroke-linecap="round" stroke-width="2.5"/>
    </g>
    <path id="Path_706" data-name="Path 706" d="M228.673,582.748a25.794,25.794,0,0,0,16.116.564" fill="none" stroke="#194689" stroke-linecap="round" stroke-width="2.5"/>
    <g id="Group_66" data-name="Group 66">
      <path id="Path_707" data-name="Path 707" d="M244.871,605.474s-4.466-3.525-9.528-2.922c-4.543.541-7.114,3.733-7.18,6.9-.09,4.354,1.611,6.9,7.985,8.846s8.624,4.01,9.125,7.873c.46,3.544-2.281,7.954-8.655,7.792a14.137,14.137,0,0,1-9.931-4.383" fill="none" stroke="#194689" stroke-linecap="round" stroke-width="2.5"/>
      <line id="Line_5" data-name="Line 5" y2="37.876" transform="translate(236.264 598.972)" fill="none" stroke="#194689" stroke-linecap="round" stroke-width="2.5"/>
    </g>
  </g>
</svg>