<?xml version="1.0" encoding="UTF-8"?>
<svg xmlns="http://www.w3.org/2000/svg" width="141.463" height="93.964" viewBox="0 0 141.463 93.964">
  <g id="Group_61" data-name="Group 61" transform="translate(-1044.477 -572.081)">
    <path id="Path_690" data-name="Path 690" d="M1148.084,586.042s-5.119,3.494-10.452,2.141-10.984-3.832-19.943-3.382-16.21.564-19.73,4.282-12.371,17.357-10.345,21.527,12.158-.789,15.358-4.509,4.8-5.748,9.491-6.2c0,0,18.664,10.819,27.943,17.131s19.09,14.652,15.464,19.836-8.426,2.7-8.426,2.7,2.133,9.016-8.212,9.129c0,0,.213,7.776-9.385,7.776,0,0-2.132,7.1-9.171,6.65a52.789,52.789,0,0,1-14.078-3.268" transform="translate(2.508 0.692)" fill="none" stroke="#194689" stroke-linecap="round" stroke-width="2.5"/>
    <path id="Path_691" data-name="Path 691" d="M1096.105,591.6a83.25,83.25,0,0,1-10.084-1.622c-3.52-.959-7.679-4.48-7.679-4.48" transform="translate(1.967 0.737)" fill="none" stroke="#194689" stroke-linecap="round" stroke-width="2.5"/>
    <path id="Path_692" data-name="Path 692" d="M1081.483,583.131c-.972,1.929-21.117,37.723-22.184,39.392s-1.919,2.095-5.225.5-7.252-3.946-8.106-5.332.32-3.52,3.732-9.6,17.6-31.249,18.558-32.742,2.346-2.667,5.332-1.173,5.759,2.986,6.719,4.052S1082.4,581.31,1081.483,583.131Z" transform="translate(0 0.013)" fill="none" stroke="#194689" stroke-linecap="round" stroke-width="2.5"/>
    <path id="Path_693" data-name="Path 693" d="M1143.648,583.252c-.426-1.174-.96-3.413.853-4.693s7.3-4.156,8.771-5.064,2.641,1.011,4.241,3.357,19.943,34.981,20.8,36.9,1.067,3.306-1.067,5.332-6.292,4.031-7.891,4.948-2.88.065-4.906-3.454S1143.648,583.252,1143.648,583.252Z" transform="translate(5.877)" fill="none" stroke="#194689" stroke-linecap="round" stroke-width="2.5"/>
    <path id="Path_694" data-name="Path 694" d="M1150.843,625.236s8.6-5.14,11.615-9.9" transform="translate(6.336 4.962)" fill="none" stroke="#194689" stroke-linecap="round" stroke-width="2.5"/>
    <line id="Line_2" data-name="Line 2" x1="21.437" y1="12.947" transform="translate(1128.515 627.271)" fill="none" stroke="#194689" stroke-linecap="round" stroke-width="2.5"/>
    <path id="Path_695" data-name="Path 695" d="M1137.366,642.436s-15.251-8.532-19.09-10.665" transform="translate(4.373 6.934)" fill="none" stroke="#194689" stroke-linecap="round" stroke-width="2.5"/>
    <path id="Path_696" data-name="Path 696" d="M1128.314,649.188s-9.6-4.479-15.571-7.358" transform="translate(4.04 8.344)" fill="none" stroke="#194689" stroke-linecap="round" stroke-width="2.5"/>
    <path id="Path_697" data-name="Path 697" d="M1108.674,648.814c-2.476,3.718-4.8,8.106-8.213,7.785s-8.532-3.732-6.4-7.785,6.079-10.025,9.812-9.6S1111.563,644.473,1108.674,648.814Z" transform="translate(2.884 8.185)" fill="none" stroke="#194689" stroke-linecap="round" stroke-width="2.5"/>
    <path id="Path_698" data-name="Path 698" d="M1094.244,650.447a6.324,6.324,0,0,1-7.348.507c-3.976-2.452-3.976-5.759-.989-9.919s7.358-11.3,10.345-10.771,8.17,3.148,5.951,9.946" transform="translate(2.294 7.645)" fill="none" stroke="#194689" stroke-linecap="round" stroke-width="2.5"/>
    <path id="Path_699" data-name="Path 699" d="M1084.3,645.279a7.98,7.98,0,0,1-7.469-1.387c-3.306-2.88-1.774-5.972,3.219-12.691s8.193-10.558,11.925-9.171,4.916,5.783,3.418,8.97" transform="translate(1.77 7.134)" fill="none" stroke="#194689" stroke-linecap="round" stroke-width="2.5"/>
    <path id="Path_700" data-name="Path 700" d="M1076.276,637.719s-5.5-.106-7.314-3.306-2.026-5.879.96-9.552,6.08-3.993,8.426-2.393,4.214,4.311,3.333,7.168" transform="translate(1.322 5.94)" fill="none" stroke="#194689" stroke-linecap="round" stroke-width="2.5"/>
    <path id="Path_701" data-name="Path 701" d="M1061.46,614.633s7.128,7.919,8.834,10.645" transform="translate(0.95 4.902)" fill="none" stroke="#194689" stroke-linecap="round" stroke-width="2.5"/>
  </g>
</svg>