<?xml version="1.0" encoding="UTF-8"?>
<svg xmlns="http://www.w3.org/2000/svg" width="114.883" height="91.874" viewBox="0 0 114.883 91.874">
  <g id="Group_72" data-name="Group 72" transform="translate(-763.556 -564.366)">
    <g id="Group_68" data-name="Group 68">
      <path id="Path_708" data-name="Path 708" d="M765.27,627.544s10.545-6.281,15.787-8.925,8.363-4.615,17.888-2.712,32.2,6.611,35.164,7.62,5.016,3.812,4.05,6.6-3.121,4.821-9.254,4.033-17.709-2.19-17.709-2.19" fill="none" stroke="#194689" stroke-linecap="round" stroke-width="2.5"/>
      <path id="Path_709" data-name="Path 709" d="M782.135,654.478s9.29-7.876,16.955-7.718,27.642,2.819,31.787,3.114,6.629-.1,10.575-2.7,29.865-19.833,31.589-21.24,2.429-6.093.18-7.751-5.273-2.775-9.436-.414-27.834,15.423-27.834,15.423" fill="none" stroke="#194689" stroke-linecap="round" stroke-width="2.5"/>
      <path id="Path_710" data-name="Path 710" d="M836.918,625.295s27.522-15.341,30.93-16.881,8.076.352,9.1,3.265-1.54,5.959-3.3,6.892" fill="none" stroke="#194689" stroke-linecap="round" stroke-width="2.5"/>
      <path id="Path_711" data-name="Path 711" d="M828.232,622.071s26.466-14.258,29.832-15.624,7.363.043,8.393,2.657" fill="none" stroke="#194689" stroke-linecap="round" stroke-width="2.5"/>
    </g>
    <g id="Group_69" data-name="Group 69">
      <path id="Path_712" data-name="Path 712" d="M820.712,571.685a20.507,20.507,0,1,1,.372,29.241" fill="none" stroke="#194689" stroke-linecap="round" stroke-width="2.5"/>
      <path id="Path_713" data-name="Path 713" d="M835.275,571.028v15.095l7.693-6.407" fill="none" stroke="#194689" stroke-linecap="round" stroke-width="2.5"/>
      <path id="Path_714" data-name="Path 714" d="M821.966,586.123" fill="none" stroke="#194689" stroke-linecap="round" stroke-width="2.5"/>
      <line id="Line_6" data-name="Line 6" y1="2.504" transform="translate(835.275 599.247)" fill="none" stroke="#194689" stroke-linecap="round" stroke-width="2.5"/>
      <line id="Line_7" data-name="Line 7" x2="2.504" transform="translate(847.878 586.123)" fill="none" stroke="#194689" stroke-linecap="round" stroke-width="2.5"/>
    </g>
    <g id="Group_71" data-name="Group 71">
      <circle id="Ellipse_8" data-name="Ellipse 8" cx="20.507" cy="20.507" r="20.507" transform="translate(785.828 566.18)" fill="none" stroke="#194689" stroke-linecap="round" stroke-width="2.5"/>
      <g id="Group_70" data-name="Group 70">
        <path id="Path_715" data-name="Path 715" d="M814.286,577.766a16.371,16.371,0,0,0-8.766-2.023c-4.18.375-6.544,2.585-6.605,4.777-.083,3.015,1.482,4.776,7.346,6.125s7.934,2.775,8.4,5.45c.423,2.454-2.1,5.507-7.963,5.4a14.838,14.838,0,0,1-9.136-3.035" fill="none" stroke="#194689" stroke-linecap="round" stroke-width="2.5"/>
        <line id="Line_8" data-name="Line 8" y2="26.223" transform="translate(806.368 573.265)" fill="none" stroke="#194689" stroke-linecap="round" stroke-width="2.5"/>
      </g>
    </g>
  </g>
</svg>